<?xml version="1.0" encoding="iso-8859-1"?>
<!-- Generator: Adobe Illustrator 19.0.0, SVG Export Plug-In . SVG Version: 6.00 Build 0)  -->
<svg version="1.1" id="Capa_1" xmlns="http://www.w3.org/2000/svg" xmlns:xlink="http://www.w3.org/1999/xlink" x="0px" y="0px"
	 viewBox="0 0 512 512" style="enable-background:new 0 0 512 512;" xml:space="preserve">
<g transform="translate(-1)">
	<rect x="177.554" y="52.966" style="fill:#3F5C6C;" width="158.897" height="105.931"/>
	<g>
		<path style="fill:#35495E;" d="M221.692,97.103c-4.875,0-8.828,3.952-8.828,8.828v52.966c0,4.875,3.952,8.828,8.828,8.828
			s8.828-3.952,8.828-8.828v-52.966C230.519,101.056,226.567,97.103,221.692,97.103z"/>
		<path style="fill:#35495E;" d="M292.312,97.103c-4.875,0-8.828,3.952-8.828,8.828v52.966c0,4.875,3.952,8.828,8.828,8.828
			s8.828-3.952,8.828-8.828v-52.966C301.14,101.056,297.188,97.103,292.312,97.103z"/>
		<path style="fill:#35495E;" d="M257.002,97.103c-4.875,0-8.828,3.952-8.828,8.828v52.966c0,4.875,3.952,8.828,8.828,8.828
			s8.828-3.952,8.828-8.828v-52.966C265.829,101.056,261.877,97.103,257.002,97.103z"/>
	</g>
	<g>
		<path style="fill:#547580;" d="M153.492,141.241H360.5c3.812-0.073,7.384,1.854,9.417,5.079
			c25.053,44.255,37.876,94.38,37.153,145.228C407.071,413.298,339.849,512,256.948,512c-82.793,0-150.015-98.702-150.015-220.451
			c-0.769-50.858,12.056-100.999,37.149-145.243C146.118,143.089,149.686,141.169,153.492,141.241z"/>
		<path style="fill:#547580;" d="M369.024,10.946l-13.241,52.966c-0.959,3.948-4.5,6.723-8.563,6.709H166.784
			c-4.063,0.014-7.604-2.761-8.563-6.709L144.98,10.946c-0.66-2.635-0.068-5.427,1.606-7.566s4.241-3.387,6.957-3.38h206.919
			c2.716-0.007,5.283,1.241,6.957,3.38C369.092,5.52,369.684,8.312,369.024,10.946z"/>
	</g>
	<g>
		<path style="fill:#3F5C6C;" d="M195.209,0v26.483c0,4.875-3.952,8.828-8.828,8.828s-8.828-3.952-8.828-8.828V0H195.209z"/>
		<path style="fill:#3F5C6C;" d="M230.519,0v26.483c0,4.875-3.952,8.828-8.828,8.828s-8.828-3.952-8.828-8.828V0H230.519z"/>
		<path style="fill:#3F5C6C;" d="M265.829,0v26.483c0,4.875-3.952,8.828-8.828,8.828s-8.828-3.952-8.828-8.828V0H265.829z"/>
		<path style="fill:#3F5C6C;" d="M301.14,0v26.483c0,4.875-3.952,8.828-8.828,8.828s-8.828-3.952-8.828-8.828V0H301.14z"/>
		<path style="fill:#3F5C6C;" d="M336.45,0v26.483c0,4.875-3.952,8.828-8.828,8.828s-8.828-3.952-8.828-8.828V0H336.45z"/>
	</g>
	<g>
		<path style="fill:#E4C05C;" d="M241.597,326.405c-2.363-4.261-7.73-5.804-11.996-3.448l-33.19,18.361
			c-4.266,2.359-5.812,7.73-3.453,11.996c2.359,4.266,7.73,5.812,11.996,3.453l33.19-18.361c2.049-1.133,3.565-3.034,4.212-5.285
			C243.004,330.87,242.731,328.454,241.597,326.405z"/>
		<path style="fill:#E4C05C;" d="M317.592,341.319l-33.19-18.361c-4.266-2.359-9.637-0.813-11.996,3.453s-0.813,9.637,3.453,11.996
			l33.19,18.361c4.266,2.359,9.637,0.813,11.996-3.453S321.858,343.678,317.592,341.319z"/>
		<path style="fill:#E4C05C;" d="M257.002,300.138c2.341,0.001,4.587-0.929,6.243-2.585c1.656-1.656,2.585-3.901,2.585-6.243V256
			c0-4.875-3.952-8.828-8.828-8.828s-8.828,3.952-8.828,8.828v35.31c-0.001,2.341,0.929,4.587,2.585,6.243
			C252.415,299.209,254.66,300.139,257.002,300.138z"/>
		<path style="fill:#E4C05C;" d="M210.61,252.69c-1.561-1.745-3.752-2.799-6.09-2.928c-2.338-0.129-4.632,0.676-6.376,2.238
			c-16.213,14.463-26.5,34.413-28.88,56.009c-0.255,2.328,0.426,4.661,1.893,6.487c1.467,1.825,3.598,2.993,5.926,3.246
			c0.322,0.034,0.646,0.052,0.97,0.052c4.5-0.006,8.276-3.397,8.763-7.871c0.287-2.632,0.726-5.246,1.315-7.828
			c3.23-14.285,10.849-27.202,21.789-36.94C213.552,261.903,213.861,256.322,210.61,252.69z"/>
		<path style="fill:#E4C05C;" d="M277.838,385.293c-13.987,4.342-28.981,4.2-42.884-0.405c-4.615-1.463-9.547,1.065-11.055,5.665
			s0.97,9.557,5.556,11.111c17.381,5.747,36.124,5.919,53.608,0.491c4.645-1.451,7.24-6.388,5.799-11.037
			C287.422,386.469,282.491,383.864,277.838,385.293L277.838,385.293z"/>
		<path style="fill:#E4C05C;" d="M343.407,299.716c-3.71-17.928-12.933-34.248-26.379-46.673c-3.582-3.295-9.156-3.07-12.461,0.504
			c-3.305,3.573-3.095,9.147,0.469,12.462c10.753,9.937,18.129,22.989,21.095,37.328c1.026,4.742,5.688,7.767,10.436,6.772
			C341.316,309.112,344.371,304.47,343.407,299.716L343.407,299.716z"/>
	</g>
	<g>
		<circle style="fill:#35495E;" cx="257.002" cy="229.517" r="26.483"/>
		<circle style="fill:#35495E;" cx="177.545" cy="361.931" r="26.483"/>
		<circle style="fill:#35495E;" cx="336.45" cy="361.931" r="26.483"/>
		<circle style="fill:#35495E;" cx="257.002" cy="317.793" r="26.483"/>
	</g>
</g>
<g>
</g>
<g>
</g>
<g>
</g>
<g>
</g>
<g>
</g>
<g>
</g>
<g>
</g>
<g>
</g>
<g>
</g>
<g>
</g>
<g>
</g>
<g>
</g>
<g>
</g>
<g>
</g>
<g>
</g>
</svg>
