<?xml version="1.0" encoding="iso-8859-1"?>
<!-- Generator: Adobe Illustrator 19.0.0, SVG Export Plug-In . SVG Version: 6.00 Build 0)  -->
<svg version="1.1" id="Layer_1" xmlns="http://www.w3.org/2000/svg" xmlns:xlink="http://www.w3.org/1999/xlink" x="0px" y="0px"
	 viewBox="0 0 512 512" style="enable-background:new 0 0 512 512;" xml:space="preserve">
<polygon style="fill:#00BB64;" points="512,233.276 512,279.297 502.819,281.163 511.757,393.609 458.857,393.609 414.584,299.097 
	371.312,307.899 371.312,204.101 415.274,213.223 458.857,120.169 511.757,120.169 502.916,231.391 "/>
<polygon style="fill:#AEADB3;" points="325.891,7.286 254.902,7.286 170.717,152.081 120.24,152.081 120.24,234.035 
	301.002,234.035 "/>
<polygon style="fill:#8B8892;" points="120.24,277.965 120.24,359.919 170.717,359.919 254.902,504.714 325.891,504.714 
	301.002,277.965 "/>
<path style="fill:#57555C;" d="M371.312,204.101V307.9H50.199C22.52,307.899,0,285.379,0,257.69v-3.381
	C0,226.62,22.52,204.1,50.199,204.1L371.312,204.101L371.312,204.101z"/>
<polygon style="fill:#008C48;" points="512,279.297 502.819,281.163 511.757,393.609 458.857,393.609 414.584,299.097 
	371.312,307.899 371.312,256 512,256 "/>
<path style="fill:#424148;" d="M371.312,256v51.899H50.199C22.52,307.899,0,285.379,0,257.69V256H371.312z"/>
<g>
</g>
<g>
</g>
<g>
</g>
<g>
</g>
<g>
</g>
<g>
</g>
<g>
</g>
<g>
</g>
<g>
</g>
<g>
</g>
<g>
</g>
<g>
</g>
<g>
</g>
<g>
</g>
<g>
</g>
</svg>
